<svg width="107" height="77" viewBox="0 0 107 77" fill="none" xmlns="http://www.w3.org/2000/svg">
<path fill-rule="evenodd" clip-rule="evenodd" d="M53.0693 0.184082C52.9959 1.65091 52.2772 5.15662 49.9889 5.68468C50.3556 6.12473 51.133 7.57689 51.3091 9.86514H52.7669V8.3692C52.667 8.48654 52.3774 8.65083 52.0178 8.3692C51.5683 8.01716 51.7182 7.31308 52.1676 6.96104C52.5272 6.67941 52.9167 6.13962 53.0666 5.90493C53.2164 6.13962 53.6059 6.67941 53.9655 6.96104C54.415 7.31308 54.5648 8.01716 54.1153 8.3692C53.7558 8.65083 53.4661 8.48654 53.3662 8.3692V9.86514H54.8294C55.0055 7.57689 55.7829 6.12473 56.1496 5.68468C53.8613 5.15662 53.1426 1.65091 53.0693 0.184082ZM48.667 10.3047H49.9872C49.1264 8.9719 49.5284 7.93784 49.7523 7.36184L49.7671 7.3237C48.711 4.93893 46.3934 3.70395 45.5867 3.70395C47.8749 5.57771 48.667 8.95614 48.667 10.3047ZM57.4663 10.3047H56.1461C57.0069 8.9719 56.6049 7.93784 56.381 7.36184L56.3661 7.3237C57.4223 4.93893 59.7398 3.70395 60.5466 3.70395C58.2583 5.57771 57.4663 8.95614 57.4663 10.3047ZM34.77 28.5672C35.8261 23.8147 33.3032 21.013 31.9098 20.2063C31.9725 20.7083 31.9637 21.2282 31.9547 21.7558C31.9322 23.0781 31.9089 24.4487 33.0098 25.7069C33.752 26.5551 34.55 28.0538 34.77 28.5672ZM26.4082 26.4797C30.1486 26.4797 33.8728 27.8248 35.6492 34.0681C35.5525 33.9876 35.3755 33.8153 35.1469 33.5927C34.3603 32.8269 32.9629 31.4665 32.1288 31.2078C28.8999 30.2061 27.8025 28.5582 26.855 27.1354L26.855 27.1354L26.8548 27.135C26.7048 26.9098 26.5585 26.6902 26.4082 26.4797ZM36.5652 13.8252C36.6007 13.8643 36.6373 13.9066 36.6745 13.952C36.6887 13.7977 36.6361 13.7779 36.5652 13.8252ZM36.6745 13.952C37.4053 14.844 38.3977 16.9284 37.2253 19.1058C35.9931 21.394 35.8318 22.8462 35.9051 23.2862C35.025 22.6261 33.6608 20.5139 35.245 17.3456C36.3189 15.1979 36.6446 14.2769 36.6745 13.952ZM8.40171 34.9479C8.40171 35.5346 8.66574 36.5321 9.72186 35.828C11.042 34.9479 6.86154 30.5474 2.24104 34.5078C-2.37947 38.4683 0.480847 47.4892 7.74164 49.9095C13.4623 51.8163 17.2027 52.1097 22.2632 50.3495C23.171 50.0338 24.0044 49.5483 24.8036 48.9553C30.8179 52.85 37.6699 53.3747 40.746 52.9902C38.3257 52.9902 33.7052 52.1101 30.4049 50.3499C29.5557 49.8971 28.4589 49.2111 27.2232 48.4383C26.891 48.2305 26.5488 48.0165 26.1987 47.7991C26.8111 47.2454 27.417 46.6474 28.0364 46.0362C29.645 44.4486 31.3443 42.7715 33.4845 41.5486C38.105 38.9083 41.4494 41.9887 42.0654 43.5288C42.5054 44.6289 43.1655 47.9293 39.4251 49.4694C35.6847 51.0096 34.5846 45.289 37.2249 45.949C37.4449 45.509 37.6209 44.5849 36.5648 44.4089C35.2447 44.1888 33.2644 45.949 34.3646 48.8094C35.4647 51.6697 40.0852 51.8897 42.2854 49.2494C44.4857 46.6091 44.2656 41.5486 39.4251 40.0084C39.2196 39.943 39.0149 39.8887 38.8111 39.8449L38.7529 39.7885L31.9459 33.1877H29.9377H29.3056L29.7594 33.6278L30.2132 34.0678H19.3647H18.7423L19.1824 34.5078L20.5025 35.828H22.2648L23.5845 37.1477H25.7835L25.7838 37.148L27.1039 38.4682H34.4025H34.751L36.1475 39.8223C33.4197 40.328 30.9191 42.3086 28.8307 43.9628L28.8307 43.9629C28.218 44.4482 27.6408 44.9054 27.1038 45.289C26.4487 45.7569 25.6544 46.3243 24.7144 46.8896C21.6372 45.0367 18.2085 43.2164 15.6633 43.0892C11.2628 42.8691 10.6027 45.5094 11.9229 45.7295C12.979 45.9055 13.0963 45.0694 13.023 44.6293C14.1231 42.6491 18.9636 44.1893 22.264 47.0496C22.547 47.2949 22.8338 47.531 23.1238 47.758C19.645 49.4616 14.6591 50.6082 7.96167 47.9293C-1.93941 43.9688 1.58098 36.488 2.24104 35.6079C2.9011 34.7278 5.54139 32.3076 8.40171 34.9479ZM22.8871 35.828H31.7615H31.7636L32.6433 36.7077H23.7668L22.8871 35.828ZM31.3211 35.3875L30.4414 34.5078H19.8047L20.6848 35.3879H21.8247L21.8243 35.3875H22.4467H31.3211ZM38.0595 39.729C37.5998 39.6856 37.1452 39.6924 36.6962 39.7414L30.3915 33.6278H31.7676L38.0595 39.729ZM44.7044 14.4857C44.2644 14.1924 43.5163 13.3856 44.0443 12.5055C44.5724 11.6254 45.5845 11.9921 46.0245 12.2855C46.5379 12.6522 47.2126 13.7817 45.8045 15.3659C45.175 16.074 44.433 16.6134 43.6186 17.2053C42.1559 18.2684 40.4599 19.5012 38.7638 22.1866C36.7836 25.322 35.0233 33.1878 40.5239 39.3485L38.9838 38.9084C35.4635 35.388 34.37 29.0584 36.7838 23.5068C38.1201 20.4334 40.6735 18.3338 42.5221 16.8138C43.7174 15.831 44.618 15.0905 44.7044 14.4857ZM41.845 19.9863C38.7647 23.14 34.6723 31.3835 42.0651 40.0085C39.7915 36.6348 36.3884 28.0832 41.845 19.9863ZM26.4061 37.148L27.2862 38.0281H33.9624L33.0823 37.148H26.4061ZM74.5825 20.2063C73.1891 21.013 70.6663 23.8147 71.7224 28.5672C71.9424 28.0538 72.7404 26.5551 73.4825 25.7069C74.5834 24.4487 74.5601 23.0781 74.5376 21.7558C74.5286 21.2282 74.5198 20.7083 74.5825 20.2063ZM70.8409 34.0681C72.6172 27.8248 76.3413 26.4797 80.0816 26.4797C79.9312 26.6903 79.7849 26.91 79.6348 27.1354C78.6873 28.5582 77.59 30.2061 74.3611 31.2078C73.5271 31.4665 72.1297 32.8269 71.3431 33.5927C71.1145 33.8153 70.9375 33.9876 70.8409 34.0681ZM69.8179 13.952C69.8551 13.9066 69.8916 13.8643 69.9272 13.8252C69.8563 13.7779 69.8037 13.7977 69.8179 13.952ZM69.2671 19.1058C68.0947 16.9284 69.0871 14.844 69.8179 13.952C69.8478 14.2769 70.1735 15.1979 71.2473 17.3456C72.8315 20.5139 71.4673 22.6261 70.5872 23.2862C70.6606 22.8462 70.4992 21.394 69.2671 19.1058ZM96.7682 35.828C97.8243 36.5321 98.0883 35.5346 98.0883 34.9479C100.949 32.3076 103.589 34.7278 104.249 35.6079C104.909 36.488 108.429 43.9688 98.5283 47.9293C91.832 50.6079 86.8466 49.4619 83.368 47.7587C83.6582 47.5314 83.9453 47.2951 84.2286 47.0496C87.5289 44.1893 92.3693 42.6491 93.4694 44.6293C93.396 45.0694 93.5134 45.9055 94.5695 45.7295C95.8896 45.5094 95.2295 42.8691 90.8292 43.0892C88.2836 43.2164 84.8546 45.0372 81.7772 46.8903C80.8368 46.3247 80.0421 45.757 79.3868 45.289C78.8497 44.9053 78.2725 44.4481 77.6599 43.9628C75.5724 42.3093 73.0732 40.3297 70.3468 39.823L71.744 38.4682H72.0901H79.3884L80.7085 37.148L80.7088 37.1477H82.9078L84.2275 35.828H85.9873L87.3074 34.5078L87.7474 34.0678H87.1251H76.2817L76.7354 33.6278L77.1892 33.1877H76.5571H74.549L67.7422 39.7885L67.6852 39.8437C67.4796 39.8878 67.2731 39.9424 67.0658 40.0084C62.2254 41.5486 62.0054 46.6091 64.2056 49.2494C66.4057 51.8897 71.0261 51.6697 72.1262 48.8094C73.2263 45.949 71.2461 44.1888 69.926 44.4089C68.8699 44.5849 69.0459 45.509 69.266 45.949C71.9062 45.289 70.8061 51.0096 67.0658 49.4694C63.3255 47.9293 63.9855 44.6289 64.4256 43.5288C65.0416 41.9887 68.3859 38.9083 73.0063 41.5486C75.1463 42.7715 76.8456 44.4486 78.4542 46.0362L78.4543 46.0364C79.0739 46.6478 79.68 47.246 80.2927 47.7999C79.944 48.0164 79.6033 48.2296 79.2724 48.4365L79.2696 48.4383C78.0339 49.2111 76.9371 49.8971 76.088 50.3499C72.7877 52.1101 68.1673 52.9902 65.7471 52.9902C68.823 53.3747 75.674 52.8501 81.6879 48.9561C82.4868 49.5487 83.3198 50.0339 84.2272 50.3495C89.2876 52.1097 93.0279 51.8163 98.7483 49.9095C106.009 47.4892 108.869 38.4683 104.249 34.5078C99.6284 30.5474 95.4481 34.9479 96.7682 35.828ZM82.7255 36.7077L83.6052 35.828H74.729L73.8493 36.7077H82.7255ZM85.805 35.3879H84.6675L84.6679 35.3875H84.0456H75.1691L76.0487 34.5078H86.6851L85.805 35.3879ZM76.1033 33.6278L69.7985 39.7418C69.3498 39.6926 68.8954 39.6856 68.4361 39.7286L74.7273 33.6278H76.1033ZM62.4457 12.5055C62.9737 13.3856 62.2257 14.1924 61.7856 14.4857C61.872 15.0905 62.7726 15.831 63.9678 16.8138C65.8164 18.3338 68.3698 20.4334 69.706 23.5068C72.1198 29.0584 71.0262 35.388 67.5061 38.9084L65.966 39.3485C71.4665 33.1878 69.7062 25.322 67.7261 22.1866C66.03 19.5012 64.3341 18.2684 62.8714 17.2053L62.8713 17.2052C62.057 16.6133 61.315 16.074 60.6856 15.3659C59.2775 13.7817 59.9522 12.6522 60.4656 12.2855C60.9056 11.9921 61.9176 11.6254 62.4457 12.5055ZM64.6474 19.9863C67.7276 23.14 71.8199 31.3835 64.4273 40.0085C66.7008 36.6348 70.1039 28.0832 64.6474 19.9863ZM79.2061 38.0281L80.0862 37.148H73.4102L72.5301 38.0281H79.2061ZM43.8257 41.2715C46.8061 43.5506 54.5967 46.5787 62.7477 41.1086C59.5594 42.7909 51.4777 45.3089 43.8257 41.2715ZM44.2656 21.5916C44.6825 20.6944 46.0582 19.214 48.226 20.4701V22.6247L48.2264 22.6244V20.4701C50.3942 19.214 51.7699 20.6944 52.1868 21.5916C50.9361 20.4701 49.6855 21.2926 49.6855 22.0403V23.4365C50.4784 24.4088 51.392 25.5301 52.333 26.6865L56.2461 21.8025C56.4623 21.2638 55.483 20.6292 54.9492 21.5331C55.2374 20.7251 56.2461 19.6476 57.5431 21.2638C58.624 20.1864 61.0018 19.9169 61.8664 22.0718C61.29 21.4434 59.4238 20.9944 57.7593 22.8799C56.8854 23.8697 55.213 25.9302 53.4714 28.0863C55.9145 31.0921 58.2916 34.0284 59.0061 34.9471C60.2382 36.5313 61.573 36.9273 62.0864 36.9273C60.5023 37.4554 59.0794 36.1206 58.5661 35.3872L53.0581 28.5983L52.7504 28.9793C53.0655 29.3872 53.3859 29.8025 53.7069 30.2188L53.7159 30.2304L53.7249 30.2421C55.6815 32.7791 57.6608 35.3456 58.6392 36.4538C60.3037 38.3393 62.1698 37.8904 62.7463 37.2619C61.8816 39.4168 59.5038 39.1473 58.423 38.0699C57.126 39.6861 56.1172 38.6086 55.829 37.8006C56.3628 38.7045 57.3422 38.0699 57.126 37.5312L51.6287 30.3684C50.9334 31.2284 50.2699 32.0466 49.688 32.7563V37.109C49.688 37.8567 50.9386 38.6792 52.1893 37.5576C51.7724 38.4549 50.3967 39.9353 48.2289 38.6792V34.5026L48.226 34.5059V38.6792C46.0582 39.9353 44.6825 38.4549 44.2656 37.5576C45.5163 38.6792 46.7669 37.8567 46.7669 37.109V29.6667V29.4826V22.0403C46.7669 21.2926 45.5163 20.4701 44.2656 21.5916ZM51.9226 27.1987L51.6419 27.549C50.8986 26.5939 50.2225 25.7361 49.6855 25.0796V24.4413L51.9226 27.1987ZM48.2264 22.6276V29.6667H48.2289V31.8088L48.226 31.8123V29.6667V29.4826V22.6272L48.2264 22.6276ZM50.5299 28.9369L49.688 29.9877V29.4826H49.6855V27.8365L50.5299 28.9369ZM48.4858 4.46028L48.766 3.26462L49.8086 3.91351L49.5284 5.10917L48.4858 4.46028ZM56.9284 3.26434L55.9788 4.04306L56.4119 5.19224L57.3614 4.41352L56.9284 3.26434ZM54.2041 11.2707C54.3145 11.3521 54.3864 11.4846 54.3864 11.6341C54.3864 11.8818 54.1894 12.0825 53.9464 12.0825C53.7033 12.0825 53.5063 11.8818 53.5063 11.6341C53.5063 11.5848 53.5141 11.5373 53.5286 11.4929C53.5197 11.2409 53.6578 10.9237 54.1301 10.7926C54.692 10.6366 55.254 10.8893 55.8453 11.1552C56.4115 11.4099 57.0047 11.6767 57.6505 11.6081C56.9904 11.833 55.9285 12.1551 54.7902 11.4673C54.5441 11.3186 54.3524 11.2654 54.2041 11.2707ZM52.6044 11.4922C52.6126 11.2403 52.4805 10.9236 52.0295 10.7926C51.4924 10.6366 50.9553 10.8893 50.3902 11.1552C49.849 11.4099 49.2821 11.6767 48.6649 11.6081C49.2957 11.833 50.3106 12.1551 51.3987 11.4673C51.634 11.3185 51.8172 11.2653 51.959 11.2707C51.8535 11.3521 51.7848 11.4846 51.7848 11.6341C51.7848 11.8818 51.9731 12.0825 52.2054 12.0825C52.4376 12.0825 52.6259 11.8818 52.6259 11.6341C52.6259 11.5845 52.6184 11.5369 52.6044 11.4922ZM61.6061 44.1508C53.5431 47.7344 46.8592 45.6619 44.467 44.1185L44.9441 43.3789C47.099 44.7692 53.4699 46.8038 61.2486 43.3466L61.6061 44.1508ZM22.271 56.3766H25.9937V56.663C25.753 56.6796 25.5496 56.7045 25.3836 56.7377C25.2176 56.7626 25.0599 56.8124 24.9105 56.8871C24.7611 56.9618 24.6034 57.0697 24.4374 57.2108C24.2797 57.3436 24.0805 57.5262 23.8397 57.7586L21.1504 60.4354L24.4498 63.9838C24.7735 64.3324 25.035 64.6063 25.2342 64.8055C25.4417 65.0048 25.6202 65.1583 25.7696 65.2662C25.9273 65.3741 26.0725 65.4447 26.2053 65.4779C26.3381 65.5028 26.4958 65.5194 26.6785 65.5277V65.7891H22.3581V65.5277L22.7441 65.5028C23.1425 65.4945 23.3417 65.3907 23.3417 65.1915C23.3417 65.1085 23.2961 64.9882 23.2048 64.8305C23.1135 64.6727 22.9848 64.4901 22.8188 64.2826C22.6611 64.0668 22.466 63.8303 22.2336 63.573C22.0095 63.3156 21.7605 63.05 21.4866 62.7761L19.9801 61.2821L19.619 61.5809V64.2577C19.619 64.515 19.6315 64.7225 19.6564 64.8803C19.6896 65.038 19.7477 65.1625 19.8307 65.2538C19.922 65.3451 20.0507 65.4115 20.2167 65.453C20.391 65.4862 20.6151 65.5111 20.889 65.5277V65.7891H16.8924V65.5277C17.1746 65.5111 17.3987 65.482 17.5647 65.4405C17.7307 65.399 17.8552 65.3285 17.9382 65.2289C18.0295 65.121 18.0876 64.9799 18.1125 64.8055C18.1457 64.6229 18.1623 64.3822 18.1623 64.0834V57.9329C18.1623 57.6839 18.1457 57.4805 18.1125 57.3228C18.0876 57.1651 18.0295 57.0406 17.9382 56.9493C17.8469 56.858 17.7183 56.7916 17.5523 56.7501C17.3863 56.7086 17.1663 56.6796 16.8924 56.663V56.3766H20.9263V56.663C20.6358 56.6796 20.4034 56.7086 20.2291 56.7501C20.0631 56.7833 19.9345 56.8456 19.8432 56.9369C19.7518 57.0282 19.6896 57.1527 19.6564 57.3104C19.6315 57.4681 19.619 57.6756 19.619 57.9329V60.8463L22.134 58.5554C22.5324 58.1902 22.8147 57.8955 22.9807 57.6714C23.155 57.4473 23.2421 57.2564 23.2421 57.0987C23.2421 56.9576 23.1965 56.8539 23.1052 56.7875C23.0222 56.7211 22.8686 56.6796 22.6445 56.663H22.271V56.3766ZM33.7792 57.9329C33.7792 57.6673 33.7626 57.4556 33.7294 57.2979C33.7045 57.1402 33.6422 57.0157 33.5426 56.9244C33.443 56.8331 33.3019 56.7709 33.1193 56.7377C32.9367 56.7045 32.696 56.6796 32.3972 56.663V56.3766H36.6179V56.663C36.3191 56.6713 36.0784 56.6962 35.8958 56.7377C35.7132 56.7709 35.5721 56.8331 35.4725 56.9244C35.3729 57.0157 35.3065 57.1444 35.2733 57.3104C35.2401 57.4681 35.2235 57.6756 35.2235 57.9329V64.2577C35.2235 64.515 35.2401 64.7267 35.2733 64.8927C35.3148 65.0504 35.3853 65.1749 35.4849 65.2662C35.5845 65.3575 35.7256 65.4239 35.9082 65.4654C36.0908 65.4986 36.3274 65.5194 36.6179 65.5277V65.7891H32.3972V65.5277C32.696 65.5194 32.9367 65.4986 33.1193 65.4654C33.3019 65.4239 33.4389 65.3575 33.5302 65.2662C33.6298 65.1749 33.6962 65.0504 33.7294 64.8927C33.7626 64.735 33.7792 64.5233 33.7792 64.2577V57.9329ZM50.8279 65.951L44.5404 58.1321V63.6975C44.5404 64.0627 44.557 64.3615 44.5902 64.5939C44.6317 64.818 44.7022 64.9965 44.8018 65.1293C44.9014 65.2621 45.0384 65.3575 45.2127 65.4156C45.387 65.4737 45.6111 65.5111 45.885 65.5277V65.7891H42.5483V65.5277C42.8388 65.5028 43.0712 65.4654 43.2455 65.4156C43.4281 65.3575 43.5651 65.2621 43.6564 65.1293C43.756 64.9965 43.8224 64.818 43.8556 64.5939C43.8888 64.3615 43.9054 64.0627 43.9054 63.6975V57.4473C43.7643 57.2813 43.6439 57.1485 43.5443 57.0489C43.4447 56.941 43.3451 56.8622 43.2455 56.8124C43.1459 56.7543 43.0422 56.7169 42.9343 56.7003C42.8264 56.6754 42.6977 56.663 42.5483 56.663V56.3766H44.9761L50.4419 63.2617V58.4683C50.4419 57.605 50.3049 57.0738 50.031 56.8746C49.9231 56.8082 49.8028 56.7626 49.67 56.7377C49.5455 56.7045 49.3504 56.6796 49.0848 56.663V56.3766H52.4091V56.663C52.1435 56.6796 51.9443 56.7086 51.8114 56.7501C51.6869 56.7916 51.579 56.8456 51.4877 56.912C51.2055 57.0946 51.0644 57.6133 51.0644 58.4683V65.951H50.8279ZM68.1878 61.0206C67.9803 61.0372 67.8101 61.0663 67.6773 61.1078C67.5528 61.141 67.4532 61.1991 67.3785 61.2821C67.3121 61.3568 67.2665 61.4647 67.2416 61.6058C67.2167 61.7386 67.2042 61.9087 67.2042 62.1163V64.9923C67.0631 65.1168 66.8556 65.2413 66.5817 65.3658C66.3078 65.482 66.0007 65.5899 65.6603 65.6895C65.3283 65.7808 64.9839 65.8514 64.627 65.9012C64.2783 65.9593 63.9505 65.9883 63.6434 65.9883C62.8548 65.9883 62.1244 65.8597 61.4521 65.6024C60.7881 65.3451 60.2195 64.9674 59.7464 64.4694C59.348 64.0461 59.0533 63.5647 58.8624 63.0251C58.6715 62.4856 58.576 61.8714 58.576 61.1825C58.576 60.452 58.6964 59.7839 58.9371 59.1779C59.1778 58.5637 59.5098 58.0367 59.9331 57.5967C60.3647 57.1568 60.8752 56.8124 61.4645 56.5633C62.0622 56.3143 62.7179 56.1898 63.4317 56.1898C64.0791 56.1898 64.7266 56.2977 65.374 56.5135C65.6479 56.6132 65.8596 56.663 66.009 56.663C66.1584 56.663 66.2912 56.6173 66.4074 56.526C66.5236 56.4347 66.6024 56.3226 66.6439 56.1898H66.9427L67.0672 59.1904H66.7435C66.6522 58.9746 66.5692 58.7878 66.4945 58.6301C66.4198 58.4641 66.341 58.3189 66.258 58.1944C66.1833 58.0616 66.1044 57.9454 66.0214 57.8457C65.9384 57.7378 65.8429 57.6341 65.735 57.5345C65.1706 57.0116 64.4858 56.7501 63.6807 56.7501C63.1661 56.7501 62.6888 56.8497 62.2489 57.0489C61.8173 57.2481 61.4479 57.5345 61.1408 57.908C60.8503 58.2649 60.6179 58.738 60.4436 59.3274C60.2693 59.9084 60.1821 60.5184 60.1821 61.1576C60.1821 61.8216 60.2693 62.4192 60.4436 62.9504C60.6179 63.4734 60.8669 63.9174 61.1906 64.2826C61.5143 64.6479 61.9045 64.9301 62.361 65.1293C62.8258 65.3285 63.3487 65.4281 63.9297 65.4281C64.187 65.4281 64.4277 65.4073 64.6519 65.3658C64.8843 65.316 65.0876 65.2538 65.2619 65.1791C65.4362 65.1044 65.5732 65.0172 65.6728 64.9176C65.7724 64.8097 65.8222 64.6976 65.8222 64.5814V62.2781C65.8222 62.0208 65.8098 61.8133 65.7849 61.6556C65.7599 61.4979 65.7018 61.3775 65.6105 61.2945C65.5275 61.2032 65.403 61.141 65.237 61.1078C65.071 61.0663 64.8469 61.0372 64.5647 61.0206V60.7592H68.1878V61.0206ZM80.5177 59.2153H80.1691C80.111 59.0078 80.0529 58.8252 79.9948 58.6675C79.945 58.5098 79.8828 58.3687 79.8081 58.2442C79.7416 58.1114 79.6669 57.9952 79.5839 57.8955C79.5009 57.7876 79.4055 57.6756 79.2976 57.5594C78.7996 57.0365 78.2185 56.775 77.5545 56.775C77.1146 56.775 76.7577 56.8912 76.4838 57.1236C76.2182 57.356 76.0854 57.6714 76.0854 58.0699C76.0854 58.46 76.2472 58.8252 76.5709 59.1655C76.8946 59.5058 77.4259 59.8793 78.1646 60.286C79.1108 60.8007 79.7915 61.3028 80.2065 61.7925C80.6298 62.2823 80.8414 62.8176 80.8414 63.3987C80.8414 63.7639 80.7667 64.1042 80.6173 64.4196C80.4679 64.735 80.2646 65.0089 80.0073 65.2413C79.7499 65.4737 79.4428 65.6563 79.0859 65.7891C78.729 65.9219 78.3472 65.9883 77.9405 65.9883C77.65 65.9883 77.3636 65.9634 77.0814 65.9136C76.7992 65.8638 76.5253 65.7808 76.2597 65.6646C76.1186 65.6148 75.9899 65.5775 75.8737 65.5526C75.7575 65.5194 75.662 65.5028 75.5873 65.5028C75.4794 65.5028 75.3881 65.5484 75.3134 65.6397C75.2387 65.731 75.1972 65.8431 75.1889 65.9759H74.8777L74.4544 62.9629H74.7781C75.135 63.8344 75.5417 64.4735 75.9982 64.8803C76.4547 65.2787 77.0067 65.4779 77.6541 65.4779C78.177 65.4779 78.5962 65.3326 78.9116 65.0421C79.2353 64.7516 79.3972 64.3698 79.3972 63.8967C79.3972 63.7141 79.3764 63.5522 79.3349 63.4111C79.3017 63.27 79.2519 63.1496 79.1855 63.05C79.0195 62.7844 78.7539 62.5105 78.3887 62.2283C78.0318 61.9461 77.6002 61.6639 77.0938 61.3817C76.6954 61.1742 76.3551 60.9667 76.0729 60.7592C75.7907 60.5516 75.5583 60.3358 75.3757 60.1117C75.2014 59.8876 75.0727 59.6552 74.9897 59.4145C74.9067 59.1738 74.8652 58.9123 74.8652 58.6301C74.8652 57.8416 75.1391 57.2274 75.687 56.7875C75.9194 56.5965 76.1767 56.4513 76.4589 56.3517C76.7411 56.2438 77.0191 56.1898 77.2931 56.1898C77.5421 56.1898 77.7911 56.2189 78.0401 56.277C78.2974 56.3268 78.5589 56.4015 78.8245 56.5011C78.9573 56.5592 79.0776 56.6007 79.1855 56.6256C79.2934 56.6505 79.3847 56.663 79.4594 56.663C79.6918 56.663 79.8412 56.5052 79.9077 56.1898H80.2065L80.5177 59.2153ZM88.739 57.6714C88.7141 57.6797 88.6851 57.6839 88.6519 57.6839H88.5772C88.2866 57.6839 88.0584 57.6175 87.8924 57.4847C87.7264 57.3519 87.6434 57.1651 87.6434 56.9244C87.6434 56.692 87.7264 56.5052 87.8924 56.3641C88.0584 56.2147 88.2617 56.14 88.5025 56.14C88.8179 56.14 89.071 56.2521 89.2619 56.4762C89.4611 56.7003 89.5607 56.9991 89.5607 57.3726C89.5607 57.6465 89.5109 57.9204 89.4113 58.1944C89.32 58.46 89.1914 58.7131 89.0254 58.9538C88.9756 59.0202 88.9258 59.0825 88.876 59.1406C88.8262 59.1904 88.7639 59.2485 88.6892 59.3149C88.6145 59.373 88.5274 59.4394 88.4277 59.5141C88.3281 59.5888 88.2078 59.676 88.0667 59.7756C88.0547 59.7836 88.0407 59.7935 88.0248 59.8054C88.0185 59.8102 88.0118 59.8152 88.0048 59.8206C87.9931 59.8296 87.9805 59.8395 87.9671 59.8503C87.9256 59.8752 87.8882 59.8959 87.855 59.9125L87.5562 59.5639C87.9878 59.2817 88.3157 58.9912 88.5398 58.6924C88.7639 58.3936 88.876 58.0948 88.876 57.7959C88.876 57.7129 88.8469 57.6714 88.7888 57.6714H88.739ZM42.5125 76.4722L42.877 75.3554H44.6291L44.9936 76.4722H46.0703L44.3984 71.6304H43.1077L41.4292 76.4722H42.5125ZM43.1311 74.5729L43.7363 72.7205H43.7698L44.375 74.5729H43.1311ZM49.2634 76.4722H52.9549V75.6429H50.5274L52.9482 72.2323V71.6304H49.2567V72.4597H51.691L49.2634 75.8703V76.4722ZM57.4187 71.6304H56.4156V76.4722H57.4187V71.6304ZM60.7523 72.4597H62.2369V76.4722H63.2333V72.4597H64.7179V71.6304H60.7523V72.4597Z" fill="white"/>
</svg>
